<?xml version="1.0" encoding="utf-8"?>
<!-- Generator: Adobe Illustrator 16.0.0, SVG Export Plug-In . SVG Version: 6.00 Build 0)  -->
<!DOCTYPE svg PUBLIC "-//W3C//DTD SVG 1.1//EN" "http://www.w3.org/Graphics/SVG/1.1/DTD/svg11.dtd">
<svg version="1.1" id="Layer_1" xmlns="http://www.w3.org/2000/svg" xmlns:xlink="http://www.w3.org/1999/xlink" x="0px" y="0px"
	 width="180px" height="47px" viewBox="0 0 180 47" enable-background="new 0 0 180 47" xml:space="preserve">
<g>
	<g>
		<path fill="#336E51" d="M21.592,3.5c-11.046,0-20,8.953-20,19.999c0,11.044,8.954,20.001,20,20.001
			c11.045,0,19.998-8.957,19.998-20.001C41.59,12.453,32.637,3.5,21.592,3.5z M21.592,41.483c-9.917,0-17.985-8.069-17.985-17.985
			c0-9.915,8.068-17.984,17.985-17.984c9.915,0,17.985,8.069,17.985,17.984C39.577,33.414,31.507,41.483,21.592,41.483z"/>
		<path fill="#336E51" d="M28.636,25.098v1.887c1.495,0.203,2.691,1.466,2.691,3.195c0,1.205-0.977,2.225-2.224,2.225
			c-1.23,0-2.226-0.999-2.226-2.226c0-0.003,0-0.005,0-0.008l0,0l0,0V16.828v-0.001l0,0c0-0.002,0-0.004,0-0.007
			c0-1.229,0.995-2.227,2.226-2.227c1.247,0,2.224,1.019,2.224,2.227c0,1.729-1.196,2.99-2.691,3.193V21.9
			c3.198-0.061,5.771-2.666,5.771-5.876c0-2.723-2.195-5.877-5.572-5.877c-2.849,0-5.157,2.308-5.157,5.156
			c0,0.001,0.001,0.003,0.001,0.008h-0.001v6.59H19.5v-6.59l0,0c0-0.004,0-0.007,0-0.008c0-2.849-2.309-5.156-5.153-5.156
			c-3.379,0-5.575,3.154-5.575,5.877c0,3.21,2.575,5.815,5.77,5.876v-1.888c-1.494-0.203-2.689-1.464-2.689-3.193
			c0-1.208,0.975-2.227,2.227-2.227c1.229,0,2.225,0.998,2.225,2.227c0,0.002,0,0.004,0,0.007l0,0v0.001v13.343l0,0l0,0
			c0,0.003,0,0.005,0,0.008c0,1.227-0.995,2.226-2.225,2.226c-1.252,0-2.227-1.02-2.227-2.225c0-1.729,1.195-2.992,2.689-3.195
			v-1.887c-3.194,0.062-5.77,2.666-5.77,5.877c0,2.723,2.196,5.877,5.575,5.877c2.845,0,5.153-2.31,5.153-5.156
			c0-0.003,0-0.006,0-0.008v0.001v-6.593h4.177v6.593l0.001-0.001c0,0.002-0.001,0.005-0.001,0.008c0,2.847,2.309,5.156,5.157,5.156
			c3.377,0,5.572-3.154,5.572-5.877C34.406,27.764,31.834,25.159,28.636,25.098z"/>
	</g>
	<g>
		<g>
			<rect x="151.905" y="6.881" fill="#336E51" width="2.889" height="19.415"/>
			<polygon fill="#336E51" points="59.905,6.881 59.905,15.207 50.902,15.207 50.902,6.881 48.012,6.881 48.012,26.296 
				50.902,26.296 50.902,17.971 59.905,17.971 59.905,26.296 62.797,26.296 62.797,6.881 			"/>
			<g>
				<path fill="#336E51" d="M76.771,6.881h-0.683l-9.11,19.415h2.562c0.426,0,0.787-0.268,0.931-0.644l1.924-4.098h8.073
					l1.955,4.166c0.16,0.339,0.501,0.574,0.901,0.575l0,0h2.559L76.771,6.881z M73.691,18.792l2.739-5.836l2.739,5.836H73.691z"/>
			</g>
			<g>
				<path fill="#336E51" d="M117.465,6.881h-0.682l-9.112,19.415h2.563c0.426,0,0.787-0.268,0.931-0.644l1.924-4.098h8.072
					l1.956,4.166c0.159,0.339,0.501,0.574,0.901,0.575h2.558L117.465,6.881z M114.386,18.792l2.738-5.836l2.739,5.836H114.386z"/>
			</g>
			<g>
				<path fill="#336E51" d="M102.583,17.156l-9.434-3.49c-0.341-0.132-0.521-0.518-0.441-0.878c0.533-1.743,2.152-3.017,4.068-3.017
					c1.771,0,3.291,1.087,3.932,2.629c0.292,0.698,0.911,0.527,0.991,0.508l2.028-0.527c-0.746-3.151-3.571-5.499-6.951-5.499
					c-3.517,0-6.434,2.541-7.032,5.885c-0.029,0.153-0.053,0.308-0.072,0.465c-0.005,0.061-0.008,0.122-0.016,0.182
					c-0.008,0.093-0.016,0.188-0.021,0.28c0,0.001-0.003,0.107-0.003,0.152c0,0.864,0.518,1.603,1.259,1.93
					c0.002,0.003,7.46,2.764,9.571,3.544c0.568,0.281,0.435,0.889,0.435,0.889c-0.475,1.836-2.14,3.199-4.121,3.199
					c-1.839,0-3.403-1.172-4-2.809c-0.103-0.311-0.445-0.618-0.908-0.514l-0.002-0.001l-2.08,0.563
					c0.688,3.228,3.555,5.65,6.99,5.65c3.468,0,6.357-2.471,7.012-5.748c0.001-0.006,0.073-0.416,0.103-0.69
					c0.028-0.25,0.038-0.729,0.038-0.737C103.929,18.226,103.368,17.464,102.583,17.156z"/>
			</g>
			<g>
				<path fill="#336E51" d="M140.378,16.43l7.112-9.548l-3.1,0.001c-0.316,0.003-0.614,0.16-0.797,0.391l-5.909,7.933h-4.038V6.881
					h-2.89v19.415h2.89v-8.325h4.275l5.845,7.848c0.178,0.285,0.491,0.478,0.853,0.478c0.014,0,3.108,0,3.108,0L140.378,16.43z"/>
			</g>
		</g>
		<g>
			<g>
				<path fill="#336E51" d="M164.553,26.296h-0.349l-4.638-9.883h1.304c0.218,0,0.403,0.136,0.475,0.328l3.034,6.462l3.052-6.497
					c0.08-0.173,0.255-0.293,0.457-0.293l0,0h1.304L164.553,26.296z"/>
			</g>
			<circle fill="#336E51" cx="159.263" cy="24.902" r="1.218"/>
			<polygon fill="#336E51" points="176.874,16.413 176.874,22.939 170.789,16.413 170.438,16.413 170.438,26.296 171.909,26.296 
				171.909,19.771 177.992,26.296 178.345,26.296 178.345,16.413 			"/>
		</g>
	</g>
	<g>
		<path fill="#336E51" d="M55.235,37.067c-0.116,1-0.486,1.771-1.106,2.313c-0.621,0.545-1.447,0.815-2.477,0.815
			c-1.117,0-2.012-0.401-2.685-1.201c-0.673-0.801-1.01-1.872-1.01-3.213v-0.909c0-0.879,0.157-1.651,0.471-2.317
			c0.314-0.668,0.759-1.179,1.334-1.536c0.576-0.356,1.242-0.535,2-0.535c1.004,0,1.809,0.281,2.414,0.841
			c0.606,0.561,0.959,1.336,1.059,2.327h-1.253c-0.107-0.755-0.343-1.302-0.704-1.641s-0.866-0.508-1.516-0.508
			c-0.797,0-1.421,0.295-1.873,0.883c-0.452,0.59-0.679,1.428-0.679,2.515v0.917c0,1.025,0.215,1.843,0.643,2.449
			c0.429,0.605,1.028,0.91,1.799,0.91c0.692,0,1.224-0.157,1.593-0.472c0.371-0.313,0.616-0.859,0.737-1.639H55.235z"/>
		<path fill="#336E51" d="M58.055,33.893c0.533-0.653,1.226-0.979,2.078-0.979c1.484,0,2.233,0.837,2.245,2.512v4.642h-1.2v-4.647
			c-0.004-0.507-0.12-0.882-0.347-1.124c-0.228-0.242-0.581-0.363-1.062-0.363c-0.39,0-0.731,0.104-1.026,0.312
			c-0.294,0.208-0.523,0.481-0.688,0.818v5.005h-1.2v-9.971h1.2V33.893z"/>
		<path fill="#336E51" d="M68.62,40.066c-0.069-0.139-0.126-0.386-0.17-0.74c-0.558,0.579-1.224,0.87-1.998,0.87
			c-0.692,0-1.261-0.196-1.704-0.589c-0.443-0.391-0.666-0.887-0.666-1.488c0-0.733,0.278-1.3,0.835-1.705
			c0.555-0.403,1.338-0.605,2.347-0.605h1.168v-0.552c0-0.421-0.126-0.755-0.377-1.005c-0.251-0.247-0.621-0.372-1.11-0.372
			c-0.428,0-0.787,0.108-1.077,0.324s-0.435,0.479-0.435,0.785h-1.207c0-0.35,0.124-0.689,0.372-1.016
			c0.249-0.326,0.587-0.586,1.014-0.775c0.426-0.19,0.895-0.285,1.405-0.285c0.809,0,1.443,0.202,1.901,0.606
			c0.46,0.404,0.697,0.962,0.715,1.671v3.234c0,0.644,0.082,1.156,0.247,1.538v0.104H68.62z M66.659,30.297h0.987L69.528,32
			l-1.279,0.004l-1.097-1.032l-1.104,1.032L64.764,32L66.659,30.297z M66.627,39.151c0.377,0,0.733-0.098,1.07-0.293
			c0.339-0.194,0.582-0.447,0.734-0.759v-1.441H67.49c-1.472,0-2.207,0.43-2.207,1.293c0,0.376,0.125,0.669,0.376,0.882
			C65.91,39.044,66.233,39.151,66.627,39.151z M69.97,29.174h1.299l-1.305,1.682l-0.916-0.004L69.97,29.174z"/>
		<path fill="#336E51" d="M73.251,31.342v1.7h1.311v0.929h-1.311v4.361c0,0.282,0.058,0.493,0.175,0.633
			c0.117,0.142,0.315,0.213,0.598,0.213c0.139,0,0.328-0.026,0.571-0.078v0.967c-0.316,0.087-0.623,0.13-0.922,0.13
			c-0.537,0-0.94-0.163-1.214-0.486c-0.272-0.325-0.409-0.786-0.409-1.383v-4.356h-1.279v-0.929h1.279v-1.7H73.251z"/>
		<path fill="#336E51" d="M80.773,40.066h-1.201v-9.971h1.201V40.066z"/>
		<path fill="#336E51" d="M90.299,32.484c0,0.778-0.159,1.326-0.477,1.646c-0.319,0.317-0.824,0.485-1.516,0.503v5.434h-1.143
			l-0.026-0.694c-0.468,0.549-1.153,0.824-2.058,0.824c-0.749,0-1.319-0.218-1.711-0.653s-0.59-1.079-0.594-1.931v-4.57h1.2v4.538
			c0,1.064,0.433,1.598,1.299,1.598c0.918,0,1.528-0.344,1.831-1.026v-5.109h1.201v0.851c0.294-0.009,0.515-0.051,0.662-0.127
			c0.146-0.075,0.251-0.191,0.313-0.347c0.063-0.156,0.095-0.468,0.095-0.935H90.299z"/>
		<path fill="#336E51" d="M90.814,36.489c0-0.688,0.132-1.306,0.398-1.854c0.267-0.547,0.643-0.972,1.13-1.272s1.04-0.45,1.66-0.45
			c0.896,0,1.637,0.298,2.227,0.896c0.306-0.035,0.528-0.161,0.668-0.377c0.138-0.217,0.208-0.602,0.208-1.155h0.974
			c0,1.26-0.448,2-1.344,2.221c0.315,0.597,0.474,1.26,0.474,1.992v0.143c0,0.684-0.134,1.3-0.403,1.851
			c-0.269,0.55-0.645,0.973-1.129,1.269c-0.485,0.297-1.039,0.445-1.662,0.445c-0.96,0-1.733-0.332-2.321-0.997
			c-0.586-0.663-0.879-1.54-0.879-2.625V36.489z M92.016,36.632c0,0.779,0.181,1.404,0.541,1.877
			c0.361,0.471,0.848,0.707,1.458,0.707c0.602,0,1.083-0.237,1.443-0.711c0.363-0.474,0.543-1.111,0.543-1.911v-0.104
			c0-0.784-0.183-1.411-0.549-1.882c-0.365-0.473-0.849-0.708-1.449-0.708c-0.599,0-1.078,0.235-1.442,0.708
			C92.197,35.078,92.016,35.753,92.016,36.632z M93.256,41.657c0-0.194,0.06-0.36,0.178-0.493c0.119-0.136,0.296-0.201,0.529-0.201
			c0.234,0,0.411,0.065,0.532,0.201c0.121,0.133,0.183,0.299,0.183,0.493c0,0.195-0.062,0.356-0.183,0.486s-0.298,0.195-0.532,0.195
			c-0.233,0-0.41-0.065-0.529-0.195C93.315,42.014,93.256,41.853,93.256,41.657z"/>
		<path fill="#336E51" d="M99.97,33.042l0.039,0.884c0.537-0.676,1.238-1.013,2.104-1.013c1.484,0,2.233,0.837,2.246,2.512v4.642
			h-1.201v-4.647c-0.004-0.507-0.12-0.882-0.347-1.124c-0.229-0.242-0.581-0.363-1.062-0.363c-0.39,0-0.732,0.104-1.025,0.312
			c-0.295,0.208-0.524,0.481-0.688,0.818v5.005h-1.201v-7.024H99.97z"/>
		<path fill="#336E51" d="M105.99,36.496c0-1.096,0.253-1.966,0.759-2.613c0.508-0.646,1.177-0.97,2.014-0.97
			c0.855,0,1.524,0.302,2.006,0.908l0.059-0.779h1.097v6.855c0,0.909-0.271,1.624-0.809,2.149c-0.538,0.522-1.263,0.785-2.172,0.785
			c-0.506,0-1.002-0.109-1.486-0.325c-0.485-0.216-0.854-0.512-1.109-0.889l0.622-0.721c0.516,0.636,1.145,0.955,1.89,0.955
			c0.584,0,1.039-0.166,1.366-0.494c0.327-0.33,0.49-0.793,0.49-1.39v-0.604c-0.479,0.553-1.136,0.831-1.967,0.831
			c-0.823,0-1.487-0.331-1.996-0.994C106.244,38.541,105.99,37.639,105.99,36.496z M107.198,36.632c0,0.793,0.161,1.415,0.486,1.866
			c0.325,0.453,0.779,0.68,1.363,0.68c0.757,0,1.313-0.345,1.668-1.032v-3.208c-0.368-0.671-0.919-1.006-1.655-1.006
			c-0.585,0-1.041,0.227-1.37,0.682C107.361,35.067,107.198,35.74,107.198,36.632z"/>
		<path fill="#336E51" d="M120.057,39.216c0.428,0,0.803-0.13,1.122-0.39c0.32-0.259,0.498-0.584,0.532-0.974h1.136
			c-0.02,0.402-0.159,0.785-0.415,1.149c-0.255,0.363-0.597,0.652-1.022,0.869c-0.427,0.216-0.877,0.325-1.353,0.325
			c-0.957,0-1.718-0.32-2.283-0.958c-0.564-0.638-0.846-1.512-0.846-2.618v-0.201c0-0.685,0.125-1.293,0.376-1.825
			s0.611-0.946,1.08-1.239c0.471-0.295,1.024-0.441,1.666-0.441c0.788,0,1.441,0.234,1.964,0.707c0.521,0.472,0.8,1.084,0.833,1.837
			h-1.136c-0.034-0.454-0.207-0.828-0.516-1.12c-0.31-0.292-0.692-0.438-1.146-0.438c-0.61,0-1.084,0.22-1.419,0.658
			c-0.335,0.44-0.502,1.075-0.502,1.906v0.227c0,0.81,0.165,1.432,0.5,1.869C118.961,38.996,119.437,39.216,120.057,39.216z"/>
		<path fill="#336E51" d="M125.506,33.893c0.532-0.653,1.225-0.979,2.076-0.979c1.485,0,2.234,0.837,2.247,2.512v4.642h-1.201
			v-4.647c-0.004-0.507-0.12-0.882-0.348-1.124s-0.58-0.363-1.062-0.363c-0.39,0-0.731,0.104-1.024,0.312
			c-0.295,0.208-0.524,0.481-0.688,0.818v5.005h-1.201v-9.971h1.201V33.893z"/>
		<path fill="#336E51" d="M131.415,36.489c0-0.688,0.134-1.307,0.405-1.856c0.271-0.55,0.647-0.974,1.13-1.271
			c0.482-0.3,1.033-0.448,1.651-0.448c0.956,0,1.73,0.331,2.321,0.992c0.591,0.663,0.886,1.543,0.886,2.643v0.084
			c0,0.684-0.131,1.298-0.393,1.841c-0.262,0.544-0.637,0.965-1.123,1.27c-0.487,0.302-1.047,0.454-1.678,0.454
			c-0.953,0-1.724-0.331-2.314-0.994c-0.591-0.661-0.886-1.538-0.886-2.628V36.489z M132.622,36.632c0,0.779,0.18,1.404,0.543,1.877
			c0.361,0.471,0.844,0.707,1.45,0.707c0.61,0,1.095-0.238,1.454-0.718c0.359-0.478,0.538-1.147,0.538-2.009
			c0-0.771-0.183-1.395-0.548-1.873s-0.852-0.717-1.458-0.717c-0.593,0-1.07,0.235-1.434,0.708
			C132.805,35.078,132.622,35.753,132.622,36.632z"/>
		<path fill="#336E51" d="M144.448,31.342v1.7h1.313v0.929h-1.313v4.361c0,0.282,0.06,0.493,0.176,0.633
			c0.117,0.142,0.315,0.213,0.597,0.213c0.139,0,0.329-0.026,0.572-0.078v0.967c-0.317,0.087-0.624,0.13-0.922,0.13
			c-0.537,0-0.941-0.163-1.215-0.486c-0.272-0.325-0.409-0.786-0.409-1.383v-4.356h-1.278v-0.929h1.278v-1.7H144.448z"/>
		<path fill="#336E51" d="M151.605,40.066c-0.07-0.139-0.126-0.386-0.169-0.74c-0.559,0.579-1.225,0.87-2,0.87
			c-0.692,0-1.261-0.196-1.703-0.589c-0.444-0.391-0.666-0.887-0.666-1.488c0-0.733,0.278-1.3,0.834-1.705
			c0.557-0.403,1.339-0.605,2.347-0.605h1.169v-0.552c0-0.421-0.125-0.755-0.377-1.005c-0.251-0.247-0.621-0.372-1.109-0.372
			c-0.43,0-0.787,0.108-1.078,0.324s-0.436,0.479-0.436,0.785h-1.207c0-0.35,0.125-0.689,0.373-1.016
			c0.249-0.326,0.586-0.586,1.014-0.775c0.426-0.19,0.895-0.285,1.404-0.285c0.81,0,1.443,0.202,1.902,0.606
			s0.696,0.962,0.714,1.671v3.234c0,0.644,0.083,1.156,0.247,1.538v0.104H151.605z M149.645,30.297h0.987L152.514,32l-1.279,0.004
			l-1.097-1.032l-1.104,1.032L147.749,32L149.645,30.297z M149.611,39.151c0.378,0,0.734-0.098,1.072-0.293
			c0.337-0.194,0.582-0.447,0.733-0.759v-1.441h-0.941c-1.472,0-2.207,0.43-2.207,1.293c0,0.376,0.125,0.669,0.376,0.882
			C148.896,39.044,149.218,39.151,149.611,39.151z M152.955,29.174h1.299l-1.306,1.682l-0.915-0.004L152.955,29.174z"/>
		<path fill="#336E51" d="M156.235,31.342v1.7h1.312v0.929h-1.312v4.361c0,0.282,0.059,0.493,0.177,0.633
			c0.116,0.142,0.315,0.213,0.597,0.213c0.138,0,0.329-0.026,0.571-0.078v0.967c-0.316,0.087-0.624,0.13-0.922,0.13
			c-0.537,0-0.941-0.163-1.214-0.486c-0.273-0.325-0.409-0.786-0.409-1.383v-4.356h-1.279v-0.929h1.279v-1.7H156.235z"/>
		<path fill="#336E51" d="M165.271,39.216c0.428,0,0.803-0.13,1.123-0.39c0.319-0.259,0.498-0.584,0.532-0.974h1.136
			c-0.021,0.402-0.16,0.785-0.415,1.149c-0.256,0.363-0.596,0.652-1.023,0.869c-0.426,0.216-0.877,0.325-1.353,0.325
			c-0.956,0-1.718-0.32-2.282-0.958s-0.847-1.512-0.847-2.618v-0.201c0-0.685,0.125-1.293,0.376-1.825s0.611-0.946,1.081-1.239
			c0.469-0.295,1.024-0.441,1.666-0.441c0.787,0,1.442,0.234,1.963,0.707c0.521,0.472,0.8,1.084,0.834,1.837h-1.136
			c-0.034-0.454-0.206-0.828-0.516-1.12c-0.311-0.292-0.691-0.438-1.146-0.438c-0.61,0-1.083,0.22-1.419,0.658
			c-0.336,0.44-0.503,1.075-0.503,1.906v0.227c0,0.81,0.167,1.432,0.5,1.869C164.175,38.996,164.652,39.216,165.271,39.216z"/>
		<path fill="#336E51" d="M173.854,40.066c-0.068-0.139-0.125-0.386-0.169-0.74c-0.558,0.579-1.225,0.87-1.998,0.87
			c-0.693,0-1.262-0.196-1.705-0.589c-0.442-0.391-0.665-0.887-0.665-1.488c0-0.733,0.277-1.3,0.834-1.705
			c0.557-0.403,1.339-0.605,2.348-0.605h1.168v-0.552c0-0.421-0.126-0.755-0.377-1.005c-0.251-0.247-0.621-0.372-1.11-0.372
			c-0.428,0-0.787,0.108-1.077,0.324s-0.435,0.479-0.435,0.785h-1.207c0-0.35,0.123-0.689,0.372-1.016s0.587-0.586,1.013-0.775
			c0.427-0.19,0.895-0.285,1.406-0.285c0.809,0,1.442,0.202,1.901,0.606s0.697,0.962,0.715,1.671v3.234
			c0,0.644,0.082,1.156,0.247,1.538v0.104H173.854z M171.862,39.151c0.376,0,0.733-0.098,1.07-0.293
			c0.338-0.194,0.582-0.447,0.734-0.759v-1.441h-0.941c-1.472,0-2.207,0.43-2.207,1.293c0,0.376,0.125,0.669,0.376,0.882
			C171.146,39.044,171.469,39.151,171.862,39.151z M171.979,31.894l-0.006-0.993c0.325-0.021,0.563-0.064,0.713-0.13
			c0.152-0.065,0.229-0.182,0.229-0.351s-0.099-0.296-0.296-0.381c-0.196-0.084-0.457-0.125-0.782-0.125l0.046-0.688
			c0.645,0,1.135,0.111,1.467,0.333c0.333,0.224,0.5,0.519,0.5,0.887c0,0.264-0.085,0.482-0.254,0.656
			c-0.168,0.173-0.419,0.283-0.753,0.331l-0.006,0.461H171.979z"/>
		<path fill="#336E51" d="M176.986,39.457c0-0.198,0.061-0.362,0.179-0.495c0.119-0.135,0.295-0.2,0.529-0.2
			c0.233,0,0.41,0.065,0.532,0.2c0.121,0.133,0.182,0.297,0.182,0.495c0,0.195-0.061,0.359-0.182,0.487
			c-0.122,0.129-0.299,0.193-0.532,0.193c-0.234,0-0.41-0.064-0.529-0.193C177.047,39.816,176.986,39.652,176.986,39.457z
			 M178.2,37.386h-1.084l-0.084-6.771h1.259L178.2,37.386z"/>
	</g>
</g>
</svg>
