<svg width="193" height="44" viewBox="0 0 193 44" fill="none" xmlns="http://www.w3.org/2000/svg">
<path d="M21.8597 0C9.80161 0 0 9.88045 0 22.0355C0 34.1906 9.80161 44.0711 21.8597 44.0711C33.9178 44.0711 43.7194 34.1906 43.7194 22.0355C43.6489 9.88045 33.9178 0 21.8597 0ZM21.8597 41.7964C11.0004 41.7964 2.18597 32.9111 2.18597 22.0355C2.18597 11.1599 11.0004 2.20355 21.8597 2.20355C32.719 2.20355 41.4629 11.0889 41.4629 21.9645C41.4629 32.8401 32.6485 41.7964 21.8597 41.7964Z" fill="white"/>
<path d="M29.5459 23.7415V25.8029C31.1677 26.0162 32.5075 27.4378 32.5075 29.2859C32.5075 30.6365 31.4498 31.7027 30.11 31.7027C28.7702 31.7027 27.7125 30.6365 27.7125 29.2859V14.643C27.7125 13.2924 28.7702 12.2262 30.11 12.2262C31.4498 12.2262 32.5075 13.3635 32.5075 14.643C32.5075 16.5622 31.1677 17.9128 29.5459 18.126V20.1874C33.0716 20.1163 35.8217 17.273 35.8217 13.7189C35.8217 10.7334 33.4242 7.2504 29.7574 7.2504C26.6547 7.2504 24.1162 9.80937 24.1162 12.937V20.1874H19.5327V13.0081C19.5327 9.88045 16.9942 7.32149 13.8915 7.32149C10.2247 7.32149 7.82718 10.8045 7.82718 13.79C7.82718 17.3441 10.6478 20.1874 14.103 20.2585V18.1971C12.4812 17.9838 11.1414 16.5622 11.1414 14.7141C11.1414 13.3635 12.1991 12.2973 13.5389 12.2973C14.8787 12.2973 15.9364 13.3635 15.9364 14.7141V29.4281C15.9364 30.7787 14.8787 31.8449 13.5389 31.8449C12.1991 31.8449 11.1414 30.7076 11.1414 29.4281C11.1414 27.5089 12.4107 26.1583 14.103 25.9451V23.8837C10.6478 23.9548 7.82718 26.7981 7.82718 30.3522C7.82718 33.3376 10.2247 36.8207 13.8915 36.8207C16.9942 36.8207 19.5327 34.2617 19.5327 31.1341V23.7415H24.1162V30.9919C24.1162 34.1195 26.6547 36.6785 29.7574 36.6785C33.4242 36.6785 35.8217 33.1955 35.8217 30.21C35.8217 26.727 33.0011 23.8126 29.5459 23.7415Z" fill="white"/>
<path d="M167.262 3.76737H164.089V25.1632H167.262V3.76737Z" fill="white"/>
<path d="M63.6752 3.76737V12.937H53.8031V3.76737H50.7004V25.0921H53.8031V15.9225H63.6752V25.0921H66.8484V3.76737H63.6752Z" fill="white"/>
<path d="M82.0797 3.76737H81.304L71.3613 25.1632H74.1819C74.6756 25.1632 75.0281 24.8788 75.1692 24.4523L77.2846 19.9741H86.099L88.2145 24.5945C88.3555 24.9499 88.7786 25.2342 89.2017 25.2342H92.0223L82.0797 3.76737ZM78.6949 16.8465L81.6566 10.4491L84.6182 16.8465H78.6949Z" fill="white"/>
<path d="M126.504 3.76737H125.729L115.786 25.1632H118.606C119.1 25.1632 119.453 24.8788 119.594 24.4523L121.709 19.9741H130.524L132.639 24.5945C132.78 24.9499 133.203 25.2342 133.626 25.2342H136.447L126.504 3.76737ZM123.119 16.8465L126.081 10.4491L129.043 16.8465H123.119Z" fill="white"/>
<path d="M110.286 15.0695L99.9905 11.231C99.6379 11.0889 99.4264 10.6624 99.4969 10.2359C100.061 8.31664 101.824 6.89499 103.939 6.89499C105.843 6.89499 107.536 8.10339 108.241 9.80937C108.593 10.5913 109.228 10.378 109.298 10.378L111.484 9.80937C110.638 6.32633 107.606 3.76737 103.869 3.76737C100.061 3.76737 96.8173 6.53958 96.1827 10.2359C96.1827 10.378 96.1122 10.5913 96.1122 10.7334C96.1122 10.8045 96.1122 10.8756 96.1122 10.9467C96.1122 11.0178 96.1122 11.1599 96.1122 11.231V11.3732C96.1122 12.2973 96.6763 13.1502 97.452 13.5057C97.452 13.5057 105.561 16.5622 107.888 17.4152C108.523 17.6995 108.382 18.4103 108.382 18.4103C107.888 20.4006 106.055 21.9645 103.869 21.9645C101.894 21.9645 100.132 20.685 99.4969 18.9079C99.3559 18.5525 99.0033 18.1971 98.5097 18.3393L96.2532 18.979C97.0289 22.5331 100.132 25.1632 103.869 25.1632C107.677 25.1632 110.779 22.462 111.555 18.8368C111.555 18.8368 111.625 18.4103 111.696 18.0549C111.696 17.7706 111.767 17.273 111.767 17.273C111.696 16.2068 111.132 15.3538 110.286 15.0695Z" fill="white"/>
<path d="M151.537 14.2165L159.294 3.69628H155.909C155.556 3.69628 155.204 3.83845 155.063 4.12278L148.646 12.8659H144.204V3.76737H141.03V25.1632H144.204V15.9225H148.858L155.204 24.5234C155.415 24.8078 155.768 25.021 156.121 25.021H159.505L151.537 14.2165Z" fill="white"/>
<path d="M173.467 23.7415C173.467 23.0307 172.903 22.391 172.128 22.391C171.422 22.391 170.788 22.9596 170.788 23.7415C170.788 24.4523 171.352 25.0921 172.128 25.0921C172.903 25.0921 173.467 24.5234 173.467 23.7415Z" fill="white"/>
<path d="M177.91 25.0921H177.557L172.48 14.2165H173.89C174.102 14.2165 174.313 14.3586 174.384 14.5719L177.698 21.6801L181.012 14.5008C181.083 14.2876 181.294 14.1454 181.506 14.1454H182.916L177.91 25.0921Z" fill="white"/>
<path d="M191.378 14.2165V21.3958L184.75 14.2165H184.327V25.0921H185.948V17.9128L192.577 25.0921H193V14.2165H191.378Z" fill="white"/>
<path d="M56.6237 37.5315C56.6237 38.3134 56.4121 39.0242 55.848 39.5218C55.2839 40.0194 54.5787 40.3037 53.662 40.3037C52.7453 40.3037 51.9697 39.9483 51.4056 39.3086C50.8414 38.6688 50.4889 37.8158 50.4889 36.7496V35.2569C50.4889 34.2617 50.7709 33.4087 51.4056 32.6979C51.9697 32.0582 52.7453 31.7027 53.662 31.7027C54.5787 31.7027 55.3544 31.9871 55.9185 32.4847C56.4826 32.9822 56.7647 33.622 56.6942 34.475H55.6365C55.6365 33.9063 55.4954 33.4087 55.1429 33.1244C54.7903 32.769 54.2967 32.6268 53.7325 32.6268C53.0979 32.6268 52.6043 32.9111 52.2517 33.4087C51.8992 33.9063 51.6876 34.546 51.6876 35.3279V36.8207C51.6876 37.6026 51.8992 38.2423 52.2517 38.7399C52.6043 39.2375 53.0979 39.5218 53.7325 39.5218C54.3672 39.5218 54.8608 39.3796 55.1429 39.0242C55.4954 38.6688 55.6365 38.2423 55.6365 37.6026H56.6237V37.5315Z" fill="white"/>
<path d="M58.8802 34.8304C59.0917 34.546 59.3738 34.3328 59.6558 34.1195C59.9379 33.9774 60.2905 33.8352 60.7136 33.8352C61.3482 33.8352 61.9123 34.0485 62.2649 34.4039C62.6175 34.8304 62.829 35.399 62.829 36.252V40.1615H61.7008V36.252C61.7008 35.7544 61.5597 35.399 61.3482 35.1147C61.1366 34.9015 60.7841 34.7593 60.361 34.7593C60.0084 34.7593 59.7263 34.8304 59.5148 34.9725C59.3033 35.1147 59.0917 35.2569 58.9507 35.5412V40.1615H57.8224V31.2763H58.9507V34.8304H58.8802Z" fill="white"/>
<path d="M67.9766 40.2326C67.9061 40.0194 67.9061 39.8772 67.9061 39.7351C67.9061 39.5929 67.9061 39.4507 67.8356 39.3086C67.624 39.5929 67.342 39.8772 66.9894 40.0905C66.6368 40.3037 66.2842 40.3748 65.9317 40.3748C65.297 40.3748 64.8034 40.2326 64.4509 39.8772C64.0983 39.5218 63.9572 39.0953 63.9572 38.5267C63.9572 37.958 64.1688 37.4604 64.6624 37.105C65.156 36.7496 65.7906 36.6074 66.5663 36.6074H67.7651V35.9677C67.7651 35.6123 67.624 35.3279 67.4125 35.1147C67.2715 34.9015 66.9894 34.8304 66.5663 34.8304C66.2137 34.8304 65.9317 34.9015 65.7201 35.1147C65.5086 35.3279 65.3676 35.5412 65.3676 35.7544H64.3098C64.3098 35.3279 64.5214 34.9015 64.9445 34.546C65.3675 34.1906 65.9317 33.9774 66.6368 33.9774C67.342 33.9774 67.9061 34.1906 68.3292 34.546C68.7523 34.9015 68.9638 35.399 68.9638 36.1099V39.0953C68.9638 39.3086 68.9638 39.5218 68.9638 39.7351C68.9638 39.9483 69.0343 40.1615 69.1049 40.3748H67.9766V40.2326ZM66.0727 31.4184H66.9894L68.6113 32.9111H67.483L66.5663 31.9871L65.5791 32.9111H64.4509L66.0727 31.4184ZM66.1432 39.3796C66.5663 39.3796 66.9189 39.3086 67.2715 39.0953C67.624 38.8821 67.8356 38.6688 67.9061 38.3845V37.3893H66.6368C66.2137 37.3893 65.8612 37.5315 65.5791 37.7447C65.297 37.958 65.156 38.2423 65.156 38.5267C65.156 38.811 65.2265 39.0242 65.4381 39.1664C65.5086 39.3086 65.7906 39.3796 66.1432 39.3796ZM68.9638 30.4233H70.1626L69.0343 31.916H68.1882L68.9638 30.4233Z" fill="white"/>
<path d="M71.996 32.5557V34.0485H73.1242V34.9015H71.996V38.6688C71.996 38.9531 72.0665 39.1664 72.2075 39.3086C72.3486 39.4507 72.4896 39.4507 72.7011 39.4507C72.7716 39.4507 72.8422 39.4507 72.9127 39.4507C72.9832 39.4507 73.0537 39.4507 73.1242 39.3796L73.2653 40.1615C73.1947 40.2326 73.0537 40.3037 72.9127 40.3037C72.7716 40.3748 72.5601 40.3748 72.4191 40.3748C71.996 40.3748 71.5729 40.2326 71.3613 39.9483C71.0793 39.664 70.9382 39.2375 70.9382 38.6688V34.9015H69.951V34.0485H70.9382V32.5557H71.996Z" fill="white"/>
<path d="M78.0603 40.2326H76.932V31.2763H78.0603V40.2326Z" fill="white"/>
<path d="M86.6631 33.1955C86.6631 33.9063 86.5221 34.4039 86.1695 34.7593C85.8169 35.1147 85.3233 35.3279 84.6182 35.399V40.1615H83.631L83.5605 39.2375C83.3489 39.5929 83.1374 39.8061 82.7848 40.0194C82.5027 40.2326 82.1502 40.3037 81.7271 40.3037C81.0924 40.3037 80.5283 40.0905 80.1757 39.664C79.8232 39.2375 79.6116 38.5977 79.6116 37.6737V34.0485H80.7399V37.6737C80.7399 38.3134 80.8104 38.811 81.0219 39.0242C81.2335 39.2375 81.5155 39.3796 81.9386 39.3796C82.3617 39.3796 82.6438 39.3086 82.9258 39.1664C83.2079 39.0242 83.3489 38.7399 83.49 38.4556V33.9774H84.6182V34.6171C84.9708 34.6171 85.2528 34.475 85.3939 34.1906C85.5349 33.9774 85.6054 33.5509 85.6054 33.1244H86.6631V33.1955Z" fill="white"/>
<path d="M86.0285 37.105C86.0285 36.1809 86.24 35.4701 86.7336 34.8304C87.2272 34.2617 87.8619 33.9063 88.7081 33.9063C89.0606 33.9063 89.4132 33.9774 89.7658 34.1195C90.1184 34.2617 90.4004 34.475 90.612 34.6882C90.894 34.6171 91.1761 34.475 91.3171 34.1906C91.4582 33.9063 91.5287 33.622 91.5287 33.1955H92.5159C92.5159 33.7641 92.3749 34.1906 92.1633 34.546C91.8813 34.9015 91.5287 35.1147 91.0351 35.2569C91.1761 35.5412 91.2466 35.7544 91.3171 36.1099C91.3876 36.3942 91.3876 36.7496 91.3876 37.0339V37.1761C91.3876 38.1002 91.1761 38.8821 90.6825 39.4507C90.1889 40.0194 89.5543 40.3037 88.7081 40.3037C87.8619 40.3037 87.1567 40.0194 86.6631 39.4507C86.1695 38.8821 85.958 38.1002 85.958 37.1761V37.105H86.0285ZM87.1567 37.1761C87.1567 37.8158 87.2978 38.3845 87.5798 38.811C87.8619 39.2375 88.285 39.4507 88.7786 39.4507C89.3427 39.4507 89.6953 39.2375 89.9773 38.811C90.2594 38.3845 90.4004 37.8158 90.4004 37.1761V37.0339C90.4004 36.3942 90.2594 35.8255 89.9773 35.399C89.6953 34.9725 89.2722 34.7593 88.7786 34.7593C88.2145 34.7593 87.8619 34.9725 87.5798 35.399C87.2978 35.8255 87.1567 36.3942 87.1567 37.0339V37.1761ZM89.4132 42.2229H88.144V41.0856H89.4132V42.2229Z" fill="white"/>
<path d="M93.7852 34.0485L93.8557 34.9725C94.0672 34.6171 94.3493 34.4039 94.6313 34.1906C94.9134 33.9774 95.266 33.9063 95.6891 33.9063C96.3237 33.9063 96.8878 34.1195 97.2404 34.475C97.593 34.8304 97.8045 35.4701 97.8045 36.252V40.1615H96.6058V36.252C96.6058 35.6834 96.4647 35.3279 96.2532 35.1147C96.0416 34.9015 95.6891 34.7593 95.266 34.7593C94.9134 34.7593 94.6313 34.8304 94.4198 34.9725C94.2083 35.1147 93.9967 35.3279 93.8557 35.5412V40.1615H92.7274V33.9774H93.7852V34.0485Z" fill="white"/>
<path d="M99.0033 37.2472C99.0033 36.252 99.2148 35.4701 99.6379 34.8304C100.061 34.1906 100.625 33.9063 101.401 33.9063C101.824 33.9063 102.106 33.9774 102.459 34.1195C102.741 34.2617 103.023 34.475 103.234 34.8304L103.375 34.0485H104.292V40.3037C104.292 41.0856 104.08 41.7254 103.587 42.1519C103.164 42.5784 102.459 42.7916 101.612 42.7916C101.33 42.7916 100.978 42.7205 100.625 42.6494C100.273 42.5784 99.9905 42.4362 99.7084 42.294L99.8495 41.441C100.061 41.5832 100.343 41.6543 100.625 41.7254C100.907 41.7964 101.26 41.7964 101.542 41.7964C102.106 41.7964 102.459 41.6543 102.741 41.441C103.023 41.1567 103.093 40.8013 103.093 40.3037V39.5929C102.882 39.8772 102.67 40.0194 102.388 40.1615C102.106 40.3037 101.753 40.3748 101.401 40.3748C100.625 40.3748 100.061 40.0905 99.6379 39.5218C99.2148 38.9531 99.0033 38.2423 99.0033 37.3893V37.2472ZM100.132 37.3893C100.132 38.0291 100.273 38.5267 100.484 38.8821C100.766 39.2375 101.119 39.4507 101.683 39.4507C102.035 39.4507 102.317 39.3796 102.529 39.2375C102.741 39.0953 102.952 38.8821 103.093 38.5977V35.7544C102.952 35.4701 102.741 35.2569 102.529 35.1147C102.317 34.9725 102.035 34.9015 101.683 34.9015C101.119 34.9015 100.766 35.1147 100.484 35.5412C100.202 35.9677 100.132 36.5364 100.132 37.2472V37.3893Z" fill="white"/>
<path d="M109.863 32.5557V34.0485H110.991V34.9015H109.863V38.6688C109.863 38.9531 109.933 39.1664 110.074 39.3086C110.215 39.4507 110.356 39.4507 110.568 39.4507C110.638 39.4507 110.709 39.4507 110.779 39.4507C110.85 39.4507 110.92 39.4507 110.991 39.3796L111.132 40.1615C111.061 40.2326 110.92 40.3037 110.779 40.3037C110.638 40.3748 110.427 40.3748 110.286 40.3748C109.863 40.3748 109.44 40.2326 109.228 39.9483C108.946 39.664 108.805 39.2375 108.805 38.6688V34.9015H107.818V34.0485H108.805V32.5557H109.863Z" fill="white"/>
<path d="M113.177 34.8304C113.388 34.546 113.67 34.3328 113.952 34.1195C114.235 33.9774 114.587 33.8352 115.01 33.8352C115.645 33.8352 116.209 34.0485 116.562 34.4039C116.914 34.8304 117.126 35.399 117.126 36.252V40.1615H115.997V36.252C115.997 35.7544 115.856 35.399 115.645 35.1147C115.433 34.9015 115.081 34.7593 114.658 34.7593C114.305 34.7593 114.023 34.8304 113.811 34.9725C113.6 35.1147 113.388 35.2569 113.247 35.5412V40.1615H112.119V31.2763H113.247V34.8304H113.177Z" fill="white"/>
<path d="M122.273 40.2326C122.203 40.0194 122.203 39.8772 122.203 39.7351C122.203 39.5929 122.203 39.4507 122.132 39.3086C121.921 39.5929 121.639 39.8772 121.286 40.0905C120.934 40.3037 120.581 40.3748 120.228 40.3748C119.594 40.3748 119.1 40.2326 118.748 39.8772C118.395 39.5218 118.254 39.0953 118.254 38.5267C118.254 37.958 118.465 37.4604 118.959 37.105C119.453 36.7496 120.087 36.6074 120.863 36.6074H122.062V35.9677C122.062 35.6123 121.921 35.3279 121.709 35.1147C121.498 34.9015 121.145 34.8304 120.792 34.8304C120.44 34.8304 120.158 34.9015 119.946 35.1147C119.735 35.3279 119.594 35.5412 119.594 35.7544H118.536C118.536 35.3279 118.748 34.9015 119.171 34.546C119.594 34.1906 120.158 33.9774 120.863 33.9774C121.568 33.9774 122.132 34.1906 122.555 34.546C122.978 34.9015 123.19 35.399 123.19 36.1099V39.0953C123.19 39.3086 123.19 39.5218 123.19 39.7351C123.19 39.9483 123.26 40.1615 123.331 40.3748H122.273V40.2326ZM122.555 32.769V32.9111H121.639L120.792 32.0582L119.946 32.9111H119.03V32.769L120.44 31.4184H121.145L122.555 32.769ZM120.44 39.3796C120.863 39.3796 121.216 39.3086 121.568 39.0953C121.921 38.8821 122.132 38.6688 122.203 38.3845V37.3893H120.934C120.51 37.3893 120.158 37.5315 119.876 37.7447C119.594 37.958 119.453 38.2423 119.453 38.5267C119.453 38.811 119.523 39.0242 119.735 39.1664C119.805 39.3086 120.087 39.3796 120.44 39.3796ZM121.216 42.1519H119.946V41.0145H121.216V42.1519Z" fill="white"/>
<path d="M126.293 32.5557V34.0485H127.421V34.9015H126.293V38.6688C126.293 38.9531 126.363 39.1664 126.504 39.3086C126.645 39.4507 126.786 39.4507 126.998 39.4507C127.068 39.4507 127.139 39.4507 127.209 39.4507C127.28 39.4507 127.35 39.4507 127.421 39.3796L127.562 40.1615C127.491 40.2326 127.35 40.3037 127.209 40.3037C127.068 40.3748 126.857 40.3748 126.716 40.3748C126.293 40.3748 125.87 40.2326 125.658 39.9483C125.376 39.664 125.235 39.2375 125.235 38.6688V34.9015H124.248V34.0485H125.235V32.5557H126.293Z" fill="white"/>
<path d="M134.684 37.1761H131.37V36.252H134.684V37.1761Z" fill="white"/>
<path d="M145.05 39.0953C144.838 39.3796 144.486 39.664 143.992 39.9483C143.498 40.2326 142.864 40.3037 142.088 40.3037C141.101 40.3037 140.325 40.0194 139.691 39.3796C139.056 38.7399 138.774 37.8869 138.774 36.8918V35.1858C138.774 34.1906 139.056 33.3376 139.691 32.6979C140.325 32.0582 141.101 31.7738 142.018 31.7738C142.934 31.7738 143.639 31.9871 144.203 32.4847C144.768 32.9822 144.979 33.622 144.979 34.4039H143.921C143.921 33.9063 143.78 33.4798 143.428 33.1244C143.075 32.769 142.652 32.6268 142.018 32.6268C141.383 32.6268 140.889 32.8401 140.466 33.3376C140.114 33.8352 139.902 34.4039 139.902 35.1147V36.8207C139.902 37.5315 140.114 38.1712 140.537 38.6688C140.96 39.1664 141.453 39.3796 142.088 39.3796C142.582 39.3796 142.934 39.3086 143.216 39.1664C143.498 39.0242 143.71 38.8821 143.851 38.7399V36.9628H141.947V36.1099H144.909V39.0953H145.05Z" fill="white"/>
<path d="M147.87 32.4847H146.742V31.2763H147.87V32.4847ZM147.87 40.2326H146.742V34.0485H147.87V40.2326Z" fill="white"/>
<path d="M153.159 40.2326C153.088 40.0194 153.088 39.8772 153.088 39.7351C153.088 39.5929 153.088 39.4507 153.018 39.3086C152.806 39.5929 152.524 39.8772 152.172 40.0905C151.819 40.3037 151.467 40.3748 151.114 40.3748C150.479 40.3748 149.986 40.2326 149.633 39.8772C149.281 39.5218 149.14 39.0953 149.14 38.5267C149.14 37.958 149.351 37.4604 149.845 37.105C150.338 36.7496 150.973 36.6074 151.749 36.6074H152.947V35.9677C152.947 35.6123 152.806 35.3279 152.595 35.1147C152.383 34.9015 152.031 34.8304 151.678 34.8304C151.326 34.8304 151.043 34.9015 150.832 35.1147C150.62 35.3279 150.479 35.5412 150.479 35.7544H149.422C149.422 35.3279 149.633 34.9015 150.056 34.546C150.479 34.1906 151.043 33.9774 151.749 33.9774C152.454 33.9774 153.018 34.1906 153.441 34.546C153.864 34.9015 154.076 35.399 154.076 36.1099V39.0953C154.076 39.3086 154.076 39.5218 154.076 39.7351C154.076 39.9483 154.146 40.1615 154.217 40.3748H153.159V40.2326ZM151.326 39.3796C151.749 39.3796 152.101 39.3086 152.454 39.0953C152.806 38.8821 153.018 38.6688 153.088 38.3845V37.3893H151.819C151.396 37.3893 151.043 37.5315 150.761 37.7447C150.479 37.958 150.338 38.2423 150.338 38.5267C150.338 38.811 150.409 39.0242 150.62 39.1664C150.691 39.3086 150.973 39.3796 151.326 39.3796ZM152.242 31.4184H153.582L152.031 32.9111H151.184L152.242 31.4184Z" fill="white"/>
<path d="M159.858 32.5557V34.0485H160.986V34.9015H159.858V38.6688C159.858 38.9531 159.928 39.1664 160.069 39.3086C160.21 39.4507 160.351 39.4507 160.563 39.4507C160.634 39.4507 160.704 39.4507 160.775 39.4507C160.845 39.4507 160.916 39.4507 160.986 39.3796L161.127 40.1615C161.057 40.2326 160.916 40.3037 160.775 40.3037C160.634 40.3748 160.422 40.3748 160.281 40.3748C159.858 40.3748 159.435 40.2326 159.223 39.9483C158.941 39.664 158.8 39.2375 158.8 38.6688V34.9015H157.813V34.0485H158.8V32.5557H159.858Z" fill="white"/>
<path d="M164.935 35.0436H164.371C164.089 35.0436 163.807 35.1147 163.595 35.2569C163.384 35.399 163.243 35.6123 163.102 35.8255V40.2326H161.973V34.0485H162.961L163.102 34.9725C163.243 34.6171 163.525 34.4039 163.736 34.1906C164.018 33.9774 164.3 33.9063 164.653 33.9063C164.723 33.9063 164.794 33.9063 164.864 33.9063C164.935 33.9063 165.005 33.9063 165.076 33.9774L164.935 35.0436Z" fill="white"/>
<path d="M167.191 42.0808H165.922V40.9435H167.191V42.0808ZM167.191 32.4847H166.063V31.2763H167.191V32.4847ZM167.191 40.2326H166.063V34.0485H167.191V40.2326Z" fill="white"/>
<path d="M172.974 32.5557V34.0485H174.102V34.9015H172.974V38.6688C172.974 38.9531 173.044 39.1664 173.185 39.3086C173.326 39.4507 173.467 39.4507 173.679 39.4507C173.749 39.4507 173.82 39.4507 173.89 39.4507C173.961 39.4507 174.031 39.4507 174.102 39.3796L174.243 40.1615C174.172 40.2326 174.031 40.3037 173.89 40.3037C173.749 40.3748 173.538 40.3748 173.397 40.3748C172.974 40.3748 172.551 40.2326 172.339 39.9483C172.057 39.664 171.916 39.2375 171.916 38.6688V34.9015H170.929V34.0485H171.916V32.5557H172.974Z" fill="white"/>
<path d="M176.288 34.8304C176.499 34.546 176.782 34.3328 177.064 34.1195C177.346 33.9774 177.698 33.8352 178.121 33.8352C178.756 33.8352 179.32 34.0485 179.673 34.4039C180.025 34.8304 180.237 35.399 180.237 36.252V40.1615H179.108V36.252C179.108 35.7544 178.967 35.399 178.756 35.1147C178.544 34.9015 178.192 34.7593 177.769 34.7593C177.416 34.7593 177.134 34.8304 176.923 34.9725C176.711 35.1147 176.499 35.2569 176.358 35.5412V40.1615H175.23V31.2763H176.358V34.8304H176.288Z" fill="white"/>
<path d="M185.384 40.2326C185.314 40.0194 185.314 39.8772 185.314 39.7351C185.314 39.5929 185.314 39.4507 185.243 39.3086C185.032 39.5929 184.75 39.8772 184.397 40.0905C184.045 40.3037 183.692 40.3748 183.339 40.3748C182.705 40.3748 182.211 40.2326 181.859 39.8772C181.506 39.5218 181.365 39.0953 181.365 38.5267C181.365 37.958 181.577 37.4604 182.07 37.105C182.564 36.7496 183.198 36.6074 183.974 36.6074H185.173V35.9677C185.173 35.6123 185.032 35.3279 184.82 35.1147C184.609 34.9015 184.256 34.8304 183.904 34.8304C183.551 34.8304 183.269 34.9015 183.057 35.1147C182.846 35.3279 182.705 35.5412 182.705 35.7544H181.647C181.647 35.3279 181.859 34.9015 182.282 34.546C182.705 34.1906 183.269 33.9774 183.974 33.9774C184.679 33.9774 185.243 34.1906 185.666 34.546C186.09 34.9015 186.301 35.399 186.301 36.1099V39.0953C186.301 39.3086 186.301 39.5218 186.301 39.7351C186.301 39.9483 186.372 40.1615 186.442 40.3748H185.384V40.2326ZM185.666 32.769V32.9111H184.75L183.904 32.0582L183.057 32.9111H182.141V32.769L183.551 31.4184H184.256L185.666 32.769ZM183.48 39.3796C183.904 39.3796 184.256 39.3086 184.609 39.0953C184.961 38.8821 185.173 38.6688 185.243 38.3845V37.3893H183.974C183.551 37.3893 183.198 37.5315 182.916 37.7447C182.634 37.958 182.493 38.2423 182.493 38.5267C182.493 38.811 182.564 39.0242 182.775 39.1664C182.916 39.3086 183.198 39.3796 183.48 39.3796ZM184.256 42.1519H182.987V41.0145H184.256V42.1519Z" fill="white"/>
<path d="M189.333 32.5557V34.0485H190.461V34.9015H189.333V38.6688C189.333 38.9531 189.404 39.1664 189.545 39.3086C189.686 39.4507 189.827 39.4507 190.038 39.4507C190.109 39.4507 190.179 39.4507 190.25 39.4507C190.32 39.4507 190.391 39.4507 190.461 39.3796L190.602 40.1615C190.532 40.2326 190.391 40.3037 190.25 40.3037C190.109 40.3748 189.897 40.3748 189.756 40.3748C189.333 40.3748 188.91 40.2326 188.699 39.9483C188.417 39.664 188.275 39.2375 188.275 38.6688V34.9015H187.288V34.0485H188.275V32.5557H189.333Z" fill="white"/>
<path d="M192.788 37.4604H191.66V31.8449H192.788V37.4604ZM192.788 40.2326H191.66V39.0953H192.788V40.2326Z" fill="white"/>
</svg>
