<svg xmlns="http://www.w3.org/2000/svg" width="48" height="48">
    <path fill="#306E51" fill-rule="evenodd" d="M24 47.999c-13.255 0-24.001-10.747-24.001-24.001C-.001 10.743 10.745-.001 24-.001s23.999 10.744 23.999 23.999c0 13.254-10.744 24.001-23.999 24.001zm0-45.581c-11.9 0-21.582 9.682-21.582 21.58C2.418 35.897 12.1 45.58 24 45.58c11.899 0 21.584-9.683 21.584-21.582 0-11.898-9.685-21.58-21.584-21.58zm8.454 19.662v-2.265c1.793-.243 3.229-1.757 3.229-3.831 0-1.449-1.172-2.672-2.668-2.672-1.477 0-2.671 1.198-2.671 2.672v16.03c0 1.473 1.194 2.672 2.671 2.672 1.496 0 2.668-1.224 2.668-2.67 0-2.075-1.436-3.592-3.229-3.834v-2.264c3.838.073 6.925 3.198 6.925 7.051 0 3.268-2.635 7.053-6.687 7.053-3.419 0-6.19-2.772-6.19-6.188l.002-.009-.002.001v-7.911H21.49V33.834c0 3.416-2.77 6.188-6.184 6.188-4.055 0-6.69-3.785-6.69-7.053 0-3.853 3.09-6.978 6.923-7.051v2.264c-1.793.242-3.226 1.759-3.226 3.834 0 1.446 1.168 2.67 2.671 2.67 1.475 0 2.669-1.199 2.669-2.672V15.992v-.008c0-1.474-1.194-2.672-2.669-2.672-1.503 0-2.671 1.223-2.671 2.672 0 2.074 1.433 3.588 3.226 3.831v2.265c-3.833-.073-6.923-3.198-6.923-7.051 0-3.267 2.635-7.051 6.69-7.051 3.414 0 6.184 2.768 6.184 6.186v7.918h5.012v-7.909h.002l-.002-.009c0-3.418 2.771-6.186 6.19-6.186 4.052 0 6.687 3.784 6.687 7.051 0 3.853-3.087 6.978-6.925 7.051z"/>
</svg>
