<svg width="44" height="44" viewBox="0 0 44 44" fill="none" xmlns="http://www.w3.org/2000/svg">
<path d="M21.9999 0C9.86523 0 0 9.86526 0 22C0 34.1811 9.86523 44 21.9999 44C34.1809 44 43.9998 34.1347 43.9998 22C44.0462 9.86526 34.1809 0 21.9999 0ZM21.9999 41.8232C11.1157 41.8232 2.22315 32.9305 2.22315 22C2.22315 11.1158 11.1157 2.22316 21.9999 2.22316C32.9304 2.22316 41.823 11.1158 41.823 22C41.823 32.9305 32.9304 41.8232 21.9999 41.8232Z" fill="white"/>
<path d="M29.7809 23.76V25.8442C31.4483 26.0758 32.7451 27.4653 32.7451 29.3642C32.7451 30.7074 31.6799 31.8189 30.2904 31.8189C28.9473 31.8189 27.8357 30.7074 27.8357 29.3642V14.6821C27.8357 13.3389 28.9473 12.2274 30.2904 12.2274C31.6799 12.2274 32.7451 13.3389 32.7451 14.6821C32.7451 16.5811 31.4483 17.9705 29.7809 18.2021V20.2863C33.3009 20.24 36.1262 17.3684 36.1262 13.8021C36.1262 10.7916 33.7178 7.3179 30.0125 7.3179C26.8631 7.3179 24.3157 9.86526 24.3157 13.0147V20.2863H19.7305V13.0147C19.7305 9.86526 17.1831 7.3179 14.0799 7.3179C10.3747 7.3179 7.91997 10.7916 7.91997 13.8021C7.91997 17.3221 10.7452 20.1937 14.2652 20.2863V18.2021C12.5978 17.9705 11.301 16.5811 11.301 14.6821C11.301 13.3389 12.3663 12.2274 13.7557 12.2274C15.0989 12.2274 16.2105 13.3389 16.2105 14.6821V29.3642C16.2105 30.7074 15.0989 31.8189 13.7557 31.8189C12.3663 31.8189 11.301 30.7074 11.301 29.3642C11.301 27.4653 12.5978 26.0758 14.2652 25.8442V23.76C10.7452 23.8063 7.91997 26.6779 7.91997 30.2442C7.91997 33.2547 10.3284 36.7284 14.0799 36.7284C17.2294 36.7284 19.7305 34.1811 19.7305 31.0316V23.76H24.3157V31.0316C24.3157 34.1811 26.8631 36.7284 30.0125 36.7284C33.7178 36.7284 36.1262 33.2547 36.1262 30.2442C36.1262 26.7242 33.3009 23.8526 29.7809 23.76Z" fill="white"/>
</svg>
