<svg width="24" height="24" viewBox="0 0 24 24" fill="none" xmlns="http://www.w3.org/2000/svg">
<path d="M17.3332 21.6004C16.2016 21.6004 15.1164 21.1509 14.3162 20.3507C13.5161 19.5506 13.0666 18.4653 13.0666 17.3337V4.53372C13.0666 3.96793 13.2913 3.42531 13.6914 3.02523C14.0915 2.62515 14.6341 2.40039 15.1999 2.40039H19.4666C20.0324 2.40039 20.575 2.62515 20.9751 3.02523C21.3751 3.42531 21.5999 3.96793 21.5999 4.53372V17.3337C21.5999 18.4653 21.1504 19.5506 20.3502 20.3507C19.5501 21.1509 18.4648 21.6004 17.3332 21.6004ZM17.3332 21.6004H4.53324C3.96744 21.6004 3.42482 21.3756 3.02474 20.9755C2.62466 20.5755 2.3999 20.0328 2.3999 19.4671V15.2004C2.3999 14.6346 2.62466 14.092 3.02474 13.6919C3.42482 13.2918 3.96744 13.0671 4.53324 13.0671H6.98657M13.0666 7.04039L10.9332 4.90706C10.5332 4.50712 9.99065 4.28245 9.42497 4.28245C8.85928 4.28245 8.31676 4.50712 7.9167 4.90706L4.90017 7.92359C4.50023 8.32365 4.27556 8.86617 4.27556 9.43186C4.27556 9.99754 4.50023 10.5401 4.90017 10.9401L14.5002 20.5401M17.3332 17.3337V17.3444" stroke="white" stroke-width="2" stroke-linecap="round" stroke-linejoin="round"/>
</svg>
