<svg width="22" height="22" viewBox="0 0 22 22" fill="none" xmlns="http://www.w3.org/2000/svg">
<path d="M13.5456 13.5459C12.1397 14.9517 9.8603 14.9517 8.45442 13.5459M13.5456 13.5459C14.9515 12.14 14.9515 9.86058 13.5456 8.45469M13.5456 13.5459L17.364 17.3642M8.45442 13.5459C7.04853 12.14 7.04853 9.86058 8.45442 8.45469M8.45442 13.5459L4.63604 17.3642M8.45442 8.45469C9.8603 7.04881 12.1397 7.04881 13.5456 8.45469M8.45442 8.45469L4.63604 4.63632M13.5456 8.45469L17.364 4.63632M17.7882 17.7885C14.0392 21.5375 7.96081 21.5375 4.21178 17.7885C0.462742 14.0395 0.462742 7.96109 4.21178 4.21205C7.96081 0.46302 14.0392 0.46302 17.7882 4.21205C21.5373 7.96109 21.5373 14.0395 17.7882 17.7885Z" stroke="white" stroke-width="2" stroke-linecap="round" stroke-linejoin="round"/>
</svg>
