<svg width="22" height="22" viewBox="0 0 22 22" fill="none" xmlns="http://www.w3.org/2000/svg">
<path d="M14.2838 14.3491C14.8077 14.5237 15.3741 14.2406 15.5487 13.7166C15.7234 13.1927 15.4402 12.6264 14.9163 12.4517L14.2838 14.3491ZM11 12.2004H10C10 12.6308 10.2755 13.013 10.6838 13.1491L11 12.2004ZM12 7.18265C12 6.63036 11.5523 6.18265 11 6.18265C10.4477 6.18265 10 6.63036 10 7.18265H12ZM14.9163 12.4517L11.3163 11.2517L10.6838 13.1491L14.2838 14.3491L14.9163 12.4517ZM12 12.2004V7.18265H10V12.2004H12ZM19.6 11.0004C19.6 15.75 15.7497 19.6004 11 19.6004V21.6004C16.8542 21.6004 21.6 16.8546 21.6 11.0004H19.6ZM11 19.6004C6.25037 19.6004 2.40002 15.75 2.40002 11.0004H0.400024C0.400024 16.8546 5.14581 21.6004 11 21.6004V19.6004ZM2.40002 11.0004C2.40002 6.25074 6.25037 2.40039 11 2.40039V0.400391C5.14581 0.400391 0.400024 5.14617 0.400024 11.0004H2.40002ZM11 2.40039C15.7497 2.40039 19.6 6.25074 19.6 11.0004H21.6C21.6 5.14617 16.8542 0.400391 11 0.400391V2.40039Z" fill="#F2C154"/>
</svg>
