<svg width="22" height="22" viewBox="0 0 22 22" fill="none" xmlns="http://www.w3.org/2000/svg">
<path d="M14.2837 14.3491C14.8076 14.5237 15.3739 14.2406 15.5486 13.7166C15.7232 13.1927 15.4401 12.6264 14.9161 12.4517L14.2837 14.3491ZM10.9999 12.2004H9.9999C9.9999 12.6308 10.2753 13.013 10.6837 13.1491L10.9999 12.2004ZM11.9999 7.18265C11.9999 6.63036 11.5522 6.18265 10.9999 6.18265C10.4476 6.18265 9.9999 6.63036 9.9999 7.18265H11.9999ZM14.9161 12.4517L11.3161 11.2517L10.6837 13.1491L14.2837 14.3491L14.9161 12.4517ZM11.9999 12.2004V7.18265H9.9999V12.2004H11.9999ZM19.5999 11.0004C19.5999 15.75 15.7495 19.6004 10.9999 19.6004V21.6004C16.8541 21.6004 21.5999 16.8546 21.5999 11.0004H19.5999ZM10.9999 19.6004C6.25025 19.6004 2.3999 15.75 2.3999 11.0004H0.399902C0.399902 16.8546 5.14568 21.6004 10.9999 21.6004V19.6004ZM2.3999 11.0004C2.3999 6.25074 6.25025 2.40039 10.9999 2.40039V0.400391C5.14568 0.400391 0.399902 5.14617 0.399902 11.0004H2.3999ZM10.9999 2.40039C15.7495 2.40039 19.5999 6.25074 19.5999 11.0004H21.5999C21.5999 5.14617 16.8541 0.400391 10.9999 0.400391V2.40039Z" fill="white"/>
</svg>
