<svg width="24" height="24" viewBox="0 0 24 24" fill="none" xmlns="http://www.w3.org/2000/svg">
<path d="M17.3334 21.6004C16.2018 21.6004 15.1165 21.1509 14.3164 20.3507C13.5162 19.5506 13.0667 18.4653 13.0667 17.3337V4.53372C13.0667 3.96793 13.2915 3.42531 13.6915 3.02523C14.0916 2.62515 14.6342 2.40039 15.2 2.40039H19.4667C20.0325 2.40039 20.5751 2.62515 20.9752 3.02523C21.3753 3.42531 21.6 3.96793 21.6 4.53372V17.3337C21.6 18.4653 21.1505 19.5506 20.3503 20.3507C19.5502 21.1509 18.4649 21.6004 17.3334 21.6004ZM17.3334 21.6004H4.53336C3.96756 21.6004 3.42494 21.3756 3.02486 20.9755C2.62479 20.5755 2.40002 20.0328 2.40002 19.4671V15.2004C2.40002 14.6346 2.62479 14.092 3.02486 13.6919C3.42494 13.2918 3.96756 13.0671 4.53336 13.0671H6.98669M13.0667 7.04039L10.9334 4.90706C10.5333 4.50712 9.99077 4.28245 9.42509 4.28245C8.85941 4.28245 8.31688 4.50712 7.91682 4.90706L4.90029 7.92359C4.50035 8.32365 4.27568 8.86617 4.27568 9.43186C4.27568 9.99754 4.50035 10.5401 4.90029 10.9401L14.5003 20.5401M17.3334 17.3337V17.3444" stroke="#F2C154" stroke-width="2" stroke-linecap="round" stroke-linejoin="round"/>
</svg>
