<svg width="70" height="52" viewBox="0 0 70 52" fill="none" xmlns="http://www.w3.org/2000/svg">
<path d="M39.3661 30.3532L32.1814 27.727C25.6756 25.3554 18.5382 25.3554 12.0325 27.727L4.84773 30.3532C3.42657 30.8785 2.1949 31.8335 1.34221 33.075C0.48951 34.3165 0 35.7968 0 37.3248V48.2755C0 49.2623 0.394767 50.2014 1.07376 50.9017C1.75276 51.6021 2.7002 51.9841 3.67922 51.9841H40.5188C41.4979 51.9841 42.4295 51.5862 43.1243 50.9017C43.8191 50.2173 44.1981 49.2623 44.1981 48.2755V37.3248C44.1981 35.7968 43.7243 34.3165 42.8559 33.0591C41.9874 31.8017 40.7873 30.8626 39.3661 30.3532ZM40.5346 48.2755H3.67922V37.3248C3.67922 36.5608 3.91608 35.8127 4.34243 35.1919C4.76878 34.5712 5.38461 34.0937 6.09519 33.8231L13.2957 31.1968C18.9962 29.1117 25.2335 29.1117 30.9339 31.1968L38.1187 33.8231C38.8292 34.0777 39.4451 34.5552 39.8714 35.1919C40.2978 35.8127 40.5346 36.5608 40.5346 37.3248V48.2755ZM22.1069 22.2834C25.044 22.2834 27.8547 21.1056 29.9233 19.0205C31.9919 16.9354 33.1604 14.1022 33.1604 11.1417C33.1604 8.18121 31.9919 5.34803 29.9233 3.26293C27.8547 1.17784 25.044 0 22.1069 0C19.1699 0 16.3591 1.17784 14.2905 3.26293C12.222 5.34803 11.0535 8.18121 11.0535 11.1417C11.0535 14.1022 12.222 16.9354 14.2905 19.0205C16.3591 21.1056 19.1699 22.2834 22.1069 22.2834ZM22.1069 3.7086C24.065 3.7086 25.9283 4.48852 27.3178 5.88919C28.7074 7.28987 29.4812 9.16804 29.4812 11.1417C29.4812 13.1154 28.7074 14.9936 27.3178 16.3942C25.9283 17.7949 24.065 18.5748 22.1069 18.5748C20.1489 18.5748 18.2856 17.7949 16.896 16.3942C15.5064 14.9936 14.7327 13.1154 14.7327 11.1417C14.7327 9.16804 15.5064 7.28987 16.896 5.88919C18.2856 4.50444 20.1489 3.7086 22.1069 3.7086ZM70 1.86226V10.3777C70 11.1258 69.5579 11.8102 68.8631 12.0967C68.1683 12.3832 67.3787 12.2241 66.8577 11.6988L63.9364 8.75421L54.7304 18.0337C54.383 18.3838 53.9093 18.5748 53.4356 18.5748C52.9619 18.5748 52.4724 18.3838 52.1408 18.0337L46.0771 11.9216L40.0135 18.0337C39.2872 18.734 38.1344 18.734 37.4239 18.0178C36.7133 17.3015 36.6975 16.1396 37.4081 15.4074L44.7823 7.97429C45.1297 7.62412 45.6034 7.43312 46.0771 7.43312C46.5509 7.43312 47.0404 7.62412 47.372 7.97429L53.4356 14.0863L61.3467 6.11203L58.4254 3.16743C57.9044 2.64218 57.7464 1.83043 58.0307 1.14601C58.3149 0.445669 58.9939 0 59.7361 0H68.1841C68.6736 0 69.1473 0.191001 69.4789 0.541169C69.8105 0.891338 70 1.36884 70 1.86226Z" fill="#F2C154"/>
</svg>
