<svg width="24" height="24" viewBox="0 0 24 24" fill="none" xmlns="http://www.w3.org/2000/svg">
<path fill-rule="evenodd" clip-rule="evenodd" d="M13.6422 20.6472C13.1101 20.7477 12.5612 20.8002 12 20.8002C11.4387 20.8002 10.8898 20.7477 10.3577 20.6472C10.0859 20.2688 9.82086 19.798 9.57503 19.2361C9.24512 18.482 8.96352 17.5952 8.74764 16.6077C9.82145 16.4584 10.9863 16.3752 12.2116 16.3752C13.2828 16.3752 14.3069 16.4387 15.2639 16.5543C15.0465 17.5632 14.7607 18.4685 14.4249 19.2361C14.179 19.798 13.914 20.2688 13.6422 20.6472ZM14.7534 22.446C13.8744 22.6771 12.9515 22.8002 12 22.8002C11.0484 22.8002 10.1255 22.6771 9.2465 22.446C4.61553 21.2286 1.19995 17.0133 1.19995 12.0002C1.19995 6.9871 4.61553 2.77175 9.2465 1.55435C10.1255 1.32326 11.0484 1.2002 12 1.2002C12.9515 1.2002 13.8744 1.32326 14.7534 1.55435C17.2528 2.21138 19.3981 3.74167 20.8435 5.79931C21.2257 6.34337 21.559 6.92431 21.8369 7.53572C22.4554 8.89643 22.7999 10.4081 22.7999 12.0002C22.7999 13.5923 22.4554 15.104 21.8369 16.4647C21.559 17.0761 21.2257 17.657 20.8435 18.2011C19.3981 20.2587 17.2528 21.789 14.7534 22.446ZM18.9783 17.3621C18.286 18.2618 17.4235 19.0239 16.4391 19.6001C16.7617 18.7829 17.031 17.8694 17.2384 16.8846C17.8658 17.0215 18.4485 17.1822 18.9783 17.3621ZM20.0267 15.6126C20.5235 14.5104 20.7999 13.2876 20.7999 12.0002C20.7999 10.7128 20.5235 9.48997 20.0267 8.38783C19.2785 8.6666 18.4492 8.90326 17.5588 9.09262C17.6677 10.025 17.725 10.9998 17.725 12.0002C17.725 13.0006 17.6677 13.9754 17.5588 14.9078C18.4492 15.0971 19.2785 15.3338 20.0267 15.6126ZM15.5835 14.5786C14.5083 14.4454 13.3752 14.3752 12.2116 14.3752C10.8952 14.3752 9.61922 14.465 8.42269 14.6338C8.32673 13.7977 8.27495 12.9151 8.27495 12.0002C8.27495 11.0853 8.32673 10.2027 8.42269 9.36656C9.61922 9.53542 10.8952 9.62519 12.2116 9.62519C13.3752 9.62519 14.5083 9.55501 15.5835 9.42178C15.6754 10.2415 15.7249 11.1054 15.7249 12.0002C15.7249 12.895 15.6754 13.7588 15.5835 14.5786ZM15.2639 7.44613C14.3069 7.56166 13.2828 7.6252 12.2116 7.6252C10.9863 7.6252 9.82145 7.54202 8.74764 7.39265C8.96352 6.40516 9.24512 5.51834 9.57503 4.76426C9.82086 4.20237 10.0859 3.73163 10.3577 3.35316C10.8898 3.25274 11.4387 3.2002 12 3.2002C12.5612 3.2002 13.1101 3.25274 13.6422 3.35316C13.914 3.73163 14.179 4.20237 14.4249 4.76426C14.7607 5.53193 15.0465 6.43716 15.2639 7.44613ZM17.2384 7.11578C17.8658 6.97892 18.4485 6.81822 18.9783 6.63833C18.286 5.73858 17.4235 4.97651 16.4391 4.40025C16.7617 5.21745 17.031 6.13094 17.2384 7.11578ZM7.56082 4.40025C6.61952 4.95125 5.78975 5.67213 5.11357 6.52081C5.61846 6.70791 6.17707 6.8768 6.78129 7.02301C6.98592 6.07354 7.24836 5.19173 7.56082 4.40025ZM6.45201 9.00052C5.57474 8.795 4.76316 8.54245 4.03752 8.24837C3.50033 9.38645 3.19995 10.6582 3.19995 12.0002C3.19995 13.3421 3.50033 14.6139 4.03752 15.752C4.76316 15.4579 5.57474 15.2054 6.45201 14.9999C6.33608 14.0396 6.27495 13.0336 6.27495 12.0002C6.27495 10.9668 6.33608 9.96077 6.45201 9.00052ZM6.78129 16.9774C6.17707 17.1236 5.61846 17.2925 5.11357 17.4796C5.78975 18.3283 6.61952 19.0491 7.56082 19.6001C7.24836 18.8087 6.98592 17.9269 6.78129 16.9774Z" fill="white"/>
</svg>
