<svg width="23" height="20" viewBox="0 0 23 20" fill="none" xmlns="http://www.w3.org/2000/svg">
<path d="M22.5999 4.48714C22.4558 4.02913 22.0229 3.67701 21.5181 3.67701H16.6139V2.6556C16.6139 1.7398 15.8565 1 14.9191 1H8.71679C7.7793 1 7.02198 1.73986 7.02198 2.6556V3.67701H2.11783C1.613 3.67701 1.18034 3.99399 1.03597 4.48714L1 4.55766V8.57337C1 9.03138 1.10816 9.48917 1.25254 9.87665V17.9081C1.25254 18.5069 1.75737 19 2.37033 19H21.2297C21.8426 19 22.3475 18.5069 22.3475 17.9081V9.87665C22.5278 9.48916 22.6 9.03118 22.6 8.57337L22.5999 4.48714ZM8.10384 2.6907C8.10384 2.37373 8.39235 2.0919 8.71683 2.0919H14.9191C15.2436 2.0919 15.5321 2.37373 15.5321 2.6907V3.67701H8.10378L8.10384 2.6907ZM21.3018 17.9081C21.2655 17.9433 21.3018 17.9433 21.3018 17.9081L2.40637 17.9433C2.37041 17.9433 2.3704 17.9433 2.3704 17.9081V11.2857C2.98339 11.7437 3.74075 12.0256 4.57006 12.0256H10.1594V12.5893C10.1594 13.5051 10.9168 14.2449 11.8542 14.2449C12.7917 14.2449 13.549 13.505 13.549 12.5893V12.0256H19.1384C19.9677 12.0256 20.7251 11.7438 21.338 11.2857L21.3378 17.9081H21.3018ZM11.205 12.5889V11.0744C11.205 10.7574 11.4935 10.4756 11.818 10.4756C12.1425 10.4756 12.431 10.7574 12.431 11.0744V12.5889C12.431 12.9059 12.1425 13.1877 11.818 13.1877C11.4935 13.1877 11.205 12.9413 11.205 12.5889ZM21.5542 8.57324C21.5542 9.91187 20.4364 10.9684 19.1022 10.9684L13.5129 10.9687C13.4407 10.1232 12.7196 9.41871 11.8181 9.41871C10.9166 9.41871 10.1954 10.0881 10.1233 10.9687H4.53391C3.16357 10.9687 2.08196 9.87676 2.08196 8.57348V4.76887H2.11793H21.5175H21.5535L21.5542 8.57324Z" fill="#F2C154" stroke="#F2C154" stroke-width="0.75"/>
</svg>
